<?xml version="1.0" encoding="iso-8859-1"?>
<!-- Generator: Adobe Illustrator 19.0.0, SVG Export Plug-In . SVG Version: 6.00 Build 0)  -->
<svg version="1.1" id="Capa_1" xmlns="http://www.w3.org/2000/svg" xmlns:xlink="http://www.w3.org/1999/xlink" x="0px" y="0px"
	 viewBox="0 0 512.012 512.012" style="enable-background:new 0 0 512.012 512.012;" xml:space="preserve">
<g>
	<g>
		<path d="M494.987,422.353c-7.035-4.908-16.668-11.63-34.186-11.63c-17.517,0-27.15,6.721-34.186,11.629
			c-5.761,4.019-8.934,6.233-17.02,6.233c-8.084,0-11.257-2.214-17.017-6.232c-7.033-4.908-16.667-11.629-34.182-11.629
			c-17.517,0-27.149,6.722-34.184,11.629c-5.76,4.019-8.933,6.232-17.017,6.232s-11.257-2.214-17.017-6.232
			c-7.033-4.908-16.667-11.629-34.182-11.629c-17.516,0-27.148,6.722-34.183,11.63c-5.759,4.019-8.931,6.232-17.014,6.232
			c-8.085,0-11.258-2.214-17.018-6.232c-7.034-4.908-16.667-11.629-34.183-11.629c-17.515,0-27.148,6.722-34.182,11.629
			c-5.76,4.019-8.933,6.232-17.017,6.232s-11.257-2.214-17.017-6.232c-7.033-4.908-16.667-11.629-34.183-11.629
			c-17.515,0-27.148,6.722-34.182,11.629c-5.76,4.019-8.933,6.232-17.017,6.232v30c17.516,0,27.149-6.722,34.183-11.629
			c5.76-4.019,8.933-6.232,17.016-6.232c8.084,0,11.257,2.214,17.017,6.232c7.033,4.908,16.667,11.629,34.183,11.629
			s27.149-6.722,34.183-11.629c5.76-4.019,8.933-6.232,17.016-6.232c8.084,0,11.257,2.214,17.017,6.232
			c7.034,4.908,16.668,11.629,34.184,11.629c17.515,0,27.147-6.722,34.182-11.629c5.759-4.019,8.932-6.232,17.015-6.232
			c8.083,0,11.256,2.214,17.016,6.232c7.033,4.908,16.667,11.629,34.183,11.629c17.516,0,27.148-6.722,34.183-11.629
			c5.76-4.019,8.933-6.232,17.018-6.232c8.083,0,11.256,2.214,17.016,6.232c7.033,4.908,16.667,11.629,34.183,11.629
			c17.517,0,27.15-6.721,34.186-11.629c5.761-4.019,8.934-6.233,17.02-6.233c8.087,0,11.26,2.214,17.021,6.233
			c7.034,4.908,16.668,11.629,34.185,11.629v-30C503.921,428.586,500.748,426.372,494.987,422.353z"/>
	</g>
</g>
<g>
	<g>
		
			<rect x="446.958" y="52.124" transform="matrix(0.7071 -0.7071 0.7071 0.7071 72.7302 350.7961)" width="25.711" height="70.961"/>
	</g>
</g>
<g>
	<g>
		<path d="M494.987,333.347c-7.035-4.908-16.669-11.629-34.187-11.629c-17.517,0-27.15,6.721-34.186,11.629
			c-5.761,4.019-8.934,6.233-17.02,6.233c-8.084,0-11.257-2.214-17.017-6.232c-6.448-4.5-15.102-10.509-29.991-11.479l5.685-5.556
			c33.176-29.195,42.5-77.134,22.675-116.58l-4.944-9.838l58.633-56.864l-21.618-21.618l-8.621-8.621l-56.864,58.633l-9.839-4.945
			c-39.448-19.826-87.386-10.499-116.58,22.676l-0.322,0.354L86.02,333.788c-0.21-0.146-0.416-0.289-0.633-0.44
			c-7.033-4.908-16.667-11.629-34.183-11.629c-17.515,0-27.148,6.722-34.182,11.629c-5.76,4.019-8.933,6.232-17.017,6.232v30
			c17.516,0,27.149-6.722,34.183-11.629c5.76-4.019,8.933-6.232,17.016-6.232c8.084,0,11.257,2.214,17.017,6.232
			c7.033,4.908,16.667,11.629,34.183,11.629c17.516,0,27.149-6.722,34.183-11.629c5.76-4.019,8.933-6.232,17.016-6.232
			c8.084,0,11.257,2.214,17.017,6.232c7.034,4.908,16.668,11.629,34.184,11.629c17.515,0,27.147-6.722,34.182-11.629
			c5.759-4.019,8.932-6.232,17.015-6.232s11.256,2.214,17.016,6.232c7.033,4.908,16.667,11.629,34.183,11.629
			s27.148-6.722,34.183-11.629c5.76-4.019,8.933-6.232,17.018-6.232c8.083,0,11.256,2.214,17.016,6.232
			c7.033,4.908,16.667,11.629,34.183,11.629c17.517,0,27.15-6.721,34.186-11.629c5.761-4.019,8.934-6.233,17.02-6.233
			c8.087,0,11.26,2.214,17.021,6.233c7.034,4.908,16.668,11.629,34.185,11.629v-30C503.921,339.58,500.748,337.366,494.987,333.347z
			 M284.178,329.368c-6.481-3.927-15.146-7.649-28.179-7.649c-2.491,0-4.806,0.149-6.993,0.396l71.928-71.928l-23.693-23.692
			l-107.92,107.918c-0.495-0.341-1.002-0.693-1.536-1.065c-6.226-4.344-14.498-10.099-28.458-11.367L297.24,184.067l66.119,66.119
			L284.178,329.368z"/>
	</g>
</g>
<g>
</g>
<g>
</g>
<g>
</g>
<g>
</g>
<g>
</g>
<g>
</g>
<g>
</g>
<g>
</g>
<g>
</g>
<g>
</g>
<g>
</g>
<g>
</g>
<g>
</g>
<g>
</g>
<g>
</g>
</svg>
