<?xml version="1.0" encoding="iso-8859-1"?>
<!-- Generator: Adobe Illustrator 19.0.0, SVG Export Plug-In . SVG Version: 6.00 Build 0)  -->
<svg version="1.1" id="Capa_1" xmlns="http://www.w3.org/2000/svg" xmlns:xlink="http://www.w3.org/1999/xlink" x="0px" y="0px"
	 viewBox="0 0 512.001 512.001" style="enable-background:new 0 0 512.001 512.001;" xml:space="preserve">
<g>
	<g>
		<path d="M461.574,1.039c0,0-0.001,0-0.002,0c-1.129-0.065-2.143-0.097-3.101-0.097H109.077c-16.837,0-32.664,6.556-44.568,18.461
			c-11.904,11.905-18.458,27.733-18.454,44.57l0.012,52.278c0,2.648,1.402,5.1,3.684,6.447l26.288,15.505l-26.28,15.501
			c-2.283,1.347-3.684,3.8-3.683,6.451l0.006,31.231c0,2.649,1.402,5.101,3.684,6.448l26.273,15.496l-26.267,15.494
			c-2.283,1.347-3.684,3.799-3.683,6.45l0.01,87.412c0,4.135,3.352,7.486,7.487,7.486s7.487-3.352,7.487-7.488l-0.01-83.134
			l33.517-19.77c2.282-1.347,3.683-3.799,3.683-6.449s-1.401-5.102-3.684-6.449l-33.525-19.774l-0.004-22.68l33.529-19.778
			c2.282-1.347,3.683-3.799,3.683-6.449s-1.401-5.102-3.684-6.449l-33.54-19.782l-0.009-48.003
			c-0.003-12.836,4.993-24.903,14.069-33.979s21.142-14.075,33.979-14.075h317.62c-1.099,1.059-2.143,2.172-3.148,3.32
			c-0.108,0.123-0.221,0.242-0.327,0.365c-0.39,0.454-0.765,0.921-1.14,1.389c-0.156,0.195-0.317,0.383-0.47,0.58
			c-0.354,0.454-0.694,0.919-1.033,1.385c-0.16,0.22-0.324,0.435-0.481,0.657c-0.327,0.463-0.642,0.936-0.954,1.411
			c-0.155,0.235-0.312,0.466-0.463,0.703c-0.303,0.476-0.595,0.96-0.883,1.445c-0.145,0.245-0.292,0.487-0.433,0.734
			c-0.281,0.49-0.55,0.986-0.816,1.485c-0.134,0.253-0.27,0.504-0.399,0.76c-0.258,0.503-0.505,1.012-0.747,1.525
			c-0.122,0.26-0.244,0.519-0.362,0.781c-0.235,0.518-0.459,1.04-0.678,1.566c-0.11,0.265-0.217,0.53-0.322,0.796
			c-0.211,0.532-0.413,1.066-0.607,1.606c-0.097,0.271-0.19,0.541-0.282,0.814c-0.185,0.543-0.364,1.088-0.532,1.639
			c-0.085,0.278-0.164,0.557-0.244,0.837c-0.159,0.552-0.313,1.106-0.454,1.666c-0.072,0.286-0.137,0.575-0.204,0.863
			c-0.131,0.559-0.26,1.119-0.373,1.684c-0.06,0.298-0.11,0.6-0.165,0.9c-0.103,0.561-0.205,1.122-0.29,1.689
			c-0.048,0.321-0.084,0.646-0.126,0.969c-0.072,0.55-0.147,1.1-0.203,1.655c-0.038,0.38-0.06,0.765-0.09,1.148
			c-0.039,0.504-0.086,1.005-0.111,1.513c-0.034,0.674-0.044,1.354-0.053,2.034c-0.003,0.212-0.017,0.422-0.017,0.636v98.008
			c0,4.136,3.352,7.487,7.487,7.487c4.135,0,7.487-3.351,7.487-7.487V62h79.249c4.057,0,7.36-3.226,7.484-7.254
			c0.003-0.093,0.005-0.188,0.005-0.275C512,26.128,489.85,2.658,461.574,1.039z M425.985,47.027v-0.001
			c0.001-0.003,0.001-0.006,0.001-0.009c0.01-0.053,0.024-0.106,0.035-0.159c0.103-0.514,0.216-1.024,0.339-1.53
			c0.047-0.194,0.101-0.384,0.151-0.576c0.095-0.364,0.192-0.728,0.297-1.087c0.064-0.219,0.133-0.435,0.201-0.652
			c0.103-0.331,0.21-0.662,0.321-0.99c0.076-0.221,0.153-0.44,0.233-0.66c0.117-0.322,0.239-0.643,0.363-0.961
			c0.084-0.215,0.169-0.429,0.257-0.642c0.136-0.326,0.278-0.65,0.421-0.972c0.087-0.196,0.172-0.392,0.263-0.586
			c0.174-0.373,0.357-0.741,0.542-1.107c0.069-0.137,0.134-0.276,0.205-0.41c0.259-0.495,0.527-0.985,0.806-1.467
			c0.078-0.135,0.161-0.266,0.241-0.398c0.208-0.349,0.418-0.698,0.636-1.04c0.115-0.181,0.235-0.356,0.352-0.535
			c0.193-0.291,0.386-0.581,0.586-0.867c0.132-0.188,0.266-0.373,0.401-0.559c0.197-0.271,0.396-0.539,0.6-0.804
			c0.142-0.185,0.284-0.367,0.429-0.549c0.21-0.264,0.424-0.523,0.641-0.781c0.145-0.173,0.289-0.345,0.437-0.516
			c0.237-0.272,0.479-0.538,0.723-0.803c0.135-0.147,0.268-0.297,0.405-0.441c0.338-0.356,0.685-0.706,1.036-1.048
			c0.048-0.047,0.093-0.096,0.141-0.142c0.399-0.385,0.808-0.762,1.224-1.13c0.141-0.125,0.287-0.245,0.43-0.368
			c0.281-0.243,0.565-0.483,0.854-0.718c0.172-0.139,0.345-0.273,0.52-0.409c0.27-0.212,0.541-0.421,0.817-0.625
			c0.184-0.136,0.37-0.271,0.556-0.403c0.274-0.197,0.552-0.389,0.833-0.578c0.19-0.128,0.38-0.256,0.572-0.381
			c0.292-0.19,0.588-0.373,0.884-0.555c0.185-0.113,0.367-0.228,0.554-0.337c0.339-0.2,0.684-0.391,1.029-0.581
			c0.15-0.082,0.297-0.168,0.447-0.249c0.496-0.264,0.998-0.517,1.507-0.759c0.106-0.05,0.215-0.096,0.321-0.145
			c0.407-0.19,0.819-0.374,1.234-0.55c0.19-0.08,0.381-0.154,0.573-0.231c0.338-0.137,0.678-0.272,1.021-0.398
			c0.214-0.079,0.43-0.154,0.646-0.23c0.327-0.115,0.657-0.226,0.988-0.331c0.225-0.072,0.45-0.142,0.677-0.21
			c0.332-0.1,0.668-0.194,1.005-0.284c0.225-0.061,0.449-0.122,0.676-0.179c0.357-0.089,0.718-0.171,1.078-0.25
			c0.209-0.046,0.416-0.095,0.626-0.138c0.447-0.09,0.897-0.17,1.35-0.245c0.127-0.021,0.252-0.047,0.378-0.067
			c0.575-0.089,1.155-0.165,1.738-0.228c0.188-0.021,0.378-0.033,0.567-0.051c0.343-0.032,0.689-0.062,1.035-0.085
			c17.604,1.222,31.822,14.22,35.116,31.006H425.985z"/>
	</g>
</g>
<g>
	<g>
		<path d="M425.262,303.992V182.426c0.001-4.135-3.351-7.487-7.486-7.487c-4.135,0-7.487,3.351-7.487,7.487v117.29l-33.551,19.789
			c-2.282,1.347-3.684,3.799-3.684,6.449c0,2.649,1.401,5.102,3.684,6.449l33.551,19.79V457.92c0,21.044-17.12,38.164-38.164,38.164
			h-0.148c-21.259,0-38.554-17.295-38.554-38.554c0-4.136-3.352-7.487-7.487-7.487H61.029v-94.049
			c0.015-0.196,0.023-0.394,0.023-0.595c0-4.135-3.375-7.487-7.51-7.487s-7.487,3.352-7.487,7.487v94.645H7.487
			c-4.135,0-7.487,3.351-7.487,7.487c0,29.515,24.012,53.528,53.528,53.528h318.448h0.148c29.301,0,53.138-23.838,53.138-53.138
			V347.916c0-2.649-1.401-5.102-3.684-6.449l-26.301-15.513l26.301-15.513C423.861,309.095,425.262,306.642,425.262,303.992z
			 M53.528,496.085c-18.698,0-34.33-13.38-37.824-31.067h37.838H318.97c0.111,0.786,0.24,1.565,0.384,2.339
			c0.049,0.263,0.109,0.521,0.162,0.783c0.103,0.51,0.206,1.02,0.322,1.524c0.071,0.305,0.153,0.607,0.23,0.91
			c0.114,0.454,0.228,0.908,0.353,1.359c0.09,0.322,0.19,0.64,0.286,0.959c0.128,0.424,0.255,0.849,0.392,1.269
			c0.107,0.327,0.223,0.651,0.335,0.975c0.142,0.406,0.284,0.812,0.436,1.214c0.123,0.326,0.253,0.65,0.381,0.973
			c0.157,0.392,0.315,0.783,0.481,1.171c0.138,0.323,0.281,0.644,0.425,0.963c0.172,0.38,0.346,0.76,0.527,1.135
			c0.152,0.317,0.307,0.633,0.465,0.947c0.188,0.371,0.379,0.74,0.575,1.106c0.165,0.308,0.33,0.616,0.501,0.921
			c0.204,0.364,0.413,0.724,0.625,1.083c0.177,0.298,0.352,0.597,0.534,0.892c0.221,0.357,0.448,0.71,0.677,1.062
			c0.187,0.288,0.371,0.575,0.563,0.859c0.24,0.353,0.487,0.701,0.735,1.048c0.194,0.272,0.383,0.545,0.582,0.813
			c0.265,0.357,0.539,0.707,0.812,1.057c0.194,0.248,0.382,0.499,0.58,0.744c0.307,0.379,0.624,0.749,0.94,1.12
			c0.176,0.206,0.346,0.416,0.525,0.62c0.477,0.542,0.966,1.074,1.464,1.597c0.063,0.066,0.127,0.13,0.19,0.196
			c0.467,0.481,0.94,0.959,1.425,1.427H53.528z"/>
	</g>
</g>
<g>
	<g>
		<path d="M185.922,75.308h-53.597c-4.135,0-7.487,3.351-7.487,7.487v53.596c0,4.136,3.352,7.487,7.487,7.487h53.597
			c4.135,0,7.487-3.351,7.487-7.487V82.795C193.409,78.659,190.057,75.308,185.922,75.308z M178.435,128.904h-38.623V90.282h38.623
			V128.904z"/>
	</g>
</g>
<g>
	<g>
		<path d="M234.179,47.026c-4.135,0-7.487,3.351-7.487,7.487V424.27c0,4.136,3.352,7.487,7.487,7.487
			c4.135,0,7.487-3.352,7.487-7.488V54.513C241.666,50.377,238.314,47.026,234.179,47.026z"/>
	</g>
</g>
<g>
	<g>
		<path d="M191.003,174.94h-63.759c-4.136,0-7.488,3.352-7.488,7.487c0,21.706,17.659,39.367,39.367,39.367
			c21.706,0,39.367-17.659,39.367-39.367C198.49,178.291,195.138,174.94,191.003,174.94z M159.123,206.82
			c-10.839,0-20.05-7.107-23.217-16.906h46.434C179.174,199.713,169.963,206.82,159.123,206.82z"/>
	</g>
</g>
<g>
	<g>
		<path d="M185.922,248.069h-53.597c-4.135,0-7.487,3.351-7.487,7.487v53.597c0,4.135,3.352,7.487,7.487,7.487
			s7.487-3.352,7.487-7.487v-46.11h38.623v38.623H166.61v-19.312c0-4.136-3.352-7.487-7.487-7.487c-4.135,0-7.487,3.351-7.487,7.487
			v26.799c0,4.135,3.352,7.487,7.487,7.487h26.799c4.135,0,7.487-3.352,7.487-7.487v-53.597
			C193.409,251.42,190.057,248.069,185.922,248.069z"/>
	</g>
</g>
<g>
	<g>
		<path d="M193.92,345.739c-3.806-1.612-8.202,0.168-9.814,3.975l-9.045,21.362l-9.045-21.362c-1.172-2.769-3.887-4.568-6.894-4.568
			s-5.722,1.799-6.894,4.568l-9.045,21.362l-9.045-21.362c-1.612-3.807-6.006-5.589-9.814-3.975
			c-3.805,1.612-5.585,6.007-3.973,9.813l15.939,37.647c1.172,2.769,3.887,4.568,6.894,4.568s5.722-1.799,6.894-4.568l9.045-21.362
			l9.045,21.362c1.172,2.769,3.887,4.568,6.894,4.568c3.007,0,5.722-1.799,6.894-4.568l15.939-37.647
			C199.507,351.746,197.728,347.351,193.92,345.739z"/>
	</g>
</g>
<g>
	<g>
		<path d="M334.02,337.171h-53.596c-4.135,0-7.487,3.351-7.487,7.487v53.597c0,4.136,3.352,7.487,7.487,7.487h53.596
			c4.135,0,7.487-3.351,7.487-7.487v-53.597C341.507,340.522,338.155,337.171,334.02,337.171z M326.533,390.769h-38.622v-38.623
			h38.622V390.769z"/>
	</g>
</g>
<g>
	<g>
		<path d="M307.222,257.661c-21.706,0-39.367,17.659-39.367,39.367c0,4.135,3.352,7.487,7.487,7.487h63.759
			c4.136,0,7.488-3.351,7.488-7.487C346.589,275.321,328.929,257.661,307.222,257.661z M284.005,289.54
			c3.167-9.798,12.378-16.906,23.217-16.906s20.05,7.107,23.217,16.906H284.005z"/>
	</g>
</g>
<g>
	<g>
		<path d="M334.02,158.691c-4.135,0-7.487,3.351-7.487,7.487v46.109h-38.622v-38.622h11.825v19.312
			c-0.001,4.135,3.351,7.487,7.486,7.487s7.487-3.351,7.487-7.487v-26.799c0-4.136-3.352-7.487-7.487-7.487h-26.798
			c-4.135,0-7.487,3.351-7.487,7.487v53.596c0,4.136,3.352,7.487,7.487,7.487h53.596c4.135,0,7.487-3.351,7.487-7.487v-53.596
			C341.507,162.042,338.155,158.691,334.02,158.691z"/>
	</g>
</g>
<g>
	<g>
		<path d="M342.02,75.901c-3.806-1.611-8.201,0.168-9.813,3.975l-9.045,21.362l-9.045-21.362c-1.172-2.769-3.887-4.568-6.894-4.568
			c-3.007,0-5.722,1.799-6.894,4.568l-9.045,21.362l-9.045-21.362c-1.612-3.808-6.007-5.588-9.814-3.975
			c-3.808,1.612-5.587,6.007-3.975,9.813l15.939,37.646c1.172,2.77,3.887,4.568,6.894,4.568c3.007,0,5.722-1.799,6.894-4.568
			l9.045-21.362l9.045,21.362c1.172,2.77,3.887,4.568,6.894,4.568c3.007,0,5.722-1.799,6.894-4.568l15.939-37.646
			C347.608,81.906,345.829,77.513,342.02,75.901z"/>
	</g>
</g>
<g>
</g>
<g>
</g>
<g>
</g>
<g>
</g>
<g>
</g>
<g>
</g>
<g>
</g>
<g>
</g>
<g>
</g>
<g>
</g>
<g>
</g>
<g>
</g>
<g>
</g>
<g>
</g>
<g>
</g>
</svg>
