<svg height="512pt" viewBox="-94 0 512 512" width="512pt" xmlns="http://www.w3.org/2000/svg"><path d="m162.132812 0c-48.75 0-162.132812 21.613281-162.132812 221.867188 0 221.371093 118.84375 290.132812 162.132812 290.132812 43.289063 0 162.132813-68.761719 162.132813-290.132812 0-200.253907-113.382813-221.867188-162.132813-221.867188zm0 494.933594c-37.179687 0-145.066406-67.226563-145.066406-273.066406 0-130.152344 52.90625-204.800782 145.066406-204.800782 92.160157 0 145.066407 74.648438 145.066407 204.800782 0 205.839843-107.886719 273.066406-145.066407 273.066406zm0 0"/><path d="m198.765625 334.660156c-2.632813-.976562-4.589844-3.226562-5.1875-5.972656l-23.125-100.214844c-.882813-3.882812-4.335937-6.636718-8.320313-6.636718-3.980468 0-7.433593 2.753906-8.320312 6.636718l-23.125 100.207032c-.597656 2.742187-2.554688 4.996093-5.1875 5.972656-11.835938 4.265625-19.773438 15.804687-22.367188 32.476562-1.339843 8.257813 3.535157 16.261719 11.488282 18.859375 1.707031.554688 3.683594 1.125 5.828125 1.707031-2.15625 8.082032-2.816407 16.492188-1.945313 24.816407-4.726562 3.160156-7.5625 8.46875-7.570312 14.15625v17.066406c0 9.425781 7.640625 17.066406 17.066406 17.066406h68.265625c9.425781 0 17.066406-7.640625 17.066406-17.066406v-17.066406c-.003906-5.6875-2.84375-11-7.566406-14.167969.867187-8.320312.207031-16.730469-1.945313-24.8125 2.140626-.5625 4.136719-1.136719 5.828126-1.707031 7.953124-2.605469 12.828124-10.613281 11.484374-18.875-2.59375-16.640625-10.53125-28.160157-22.367187-32.445313zm-70.765625 109.074219v-17.066406h68.265625v17.066406zm59.007812-52.804687c1.8125 6.046874 2.453126 12.382812 1.886719 18.671874h-53.523437c-.566406-6.289062.074218-12.625 1.886718-18.671874 3.628907.484374 7.5625.851562 11.820313 1.152343l.851563.050781c3.832031.230469 7.824218.390626 12.160156.390626 4.335937 0 8.328125-.160157 12.160156-.390626l.855469-.050781c4.265625-.273437 8.191406-.667969 11.816406-1.152343zm3.660157-17.851563c-18.847657 3.148437-38.085938 3.148437-56.933594 0-4.652344-.796875-9.242187-1.917969-13.738281-3.355469.921875-5.902344 3.609375-16.210937 11.316406-19.027344 8.082031-2.945312 14.113281-9.796874 16.015625-18.183593l14.804687-64.164063 14.804688 64.1875c1.902344 8.386719 7.9375 15.234375 16.019531 18.175782 7.679688 2.78125 10.382813 13.125 11.417969 19.054687-4.492188 1.40625-9.070312 2.511719-13.707031 3.3125zm0 0"/><path d="m110.933594 290.132812c0-14.136718-11.460938-25.597656-25.601563-25.597656-14.136719 0-25.597656 11.460938-25.597656 25.597656 0 14.140626 11.460937 25.601563 25.597656 25.601563 14.140625 0 25.601563-11.460937 25.601563-25.601563zm-25.601563 8.535157c-4.710937 0-8.53125-3.820313-8.53125-8.535157 0-4.710937 3.820313-8.53125 8.53125-8.53125 4.714844 0 8.535157 3.820313 8.535157 8.53125 0 4.714844-3.820313 8.535157-8.535157 8.535157zm0 0"/><path d="m68.265625 221.867188c18.679687-.019532 36.960937 5.429687 52.582031 15.667968 2.554688 1.675782 5.804688 1.863282 8.535156.492188 2.726563-1.371094 4.515626-4.09375 4.691407-7.140625.175781-3.050781-1.285157-5.960938-3.839844-7.636719-18.414063-12.0625-39.953125-18.472656-61.96875-18.449219h-25.597656c-4.714844 0-8.535157 3.820313-8.535157 8.53125 0 4.714844 3.820313 8.535157 8.535157 8.535157zm0 0"/><path d="m264.535156 290.132812c0-14.136718-11.464844-25.597656-25.601562-25.597656-14.140625 0-25.601563 11.460938-25.601563 25.597656 0 14.140626 11.460938 25.601563 25.601563 25.601563 14.136718 0 25.601562-11.460937 25.601562-25.601563zm-25.601562 8.535157c-4.714844 0-8.535156-3.820313-8.535156-8.535157 0-4.710937 3.820312-8.53125 8.535156-8.53125 4.710937 0 8.53125 3.820313 8.53125 8.53125 0 4.714844-3.820313 8.535157-8.53125 8.535157zm0 0"/><path d="m256 204.800781c-22-.019531-43.527344 6.394531-61.933594 18.449219-3.945312 2.589844-5.042968 7.890625-2.449218 11.835938 2.589843 3.945312 7.890624 5.039062 11.835937 2.449218 15.613281-10.234375 33.878906-15.679687 52.546875-15.667968h25.601562c4.710938 0 8.53125-3.820313 8.53125-8.535157 0-4.710937-3.820312-8.53125-8.53125-8.53125zm0 0"/><path d="m59.734375 170.667969c0 4.710937-3.820313 8.53125-8.535156 8.53125-4.710938 0-8.53125-3.820313-8.53125-8.53125 0-4.714844 3.820312-8.535157 8.53125-8.535157 4.714843 0 8.535156 3.820313 8.535156 8.535157zm0 0"/><path d="m59.734375 341.332031c0 4.714844-3.820313 8.535157-8.535156 8.535157-4.710938 0-8.53125-3.820313-8.53125-8.535157 0-4.710937 3.820312-8.53125 8.53125-8.53125 4.714843 0 8.535156 3.820313 8.535156 8.53125zm0 0"/><path d="m76.800781 384c0 4.710938-3.820312 8.535156-8.535156 8.535156-4.710937 0-8.53125-3.824218-8.53125-8.535156s3.820313-8.535156 8.53125-8.535156c4.714844 0 8.535156 3.824218 8.535156 8.535156zm0 0"/><path d="m281.601562 341.332031c0 4.714844-3.820312 8.535157-8.535156 8.535157-4.710937 0-8.53125-3.820313-8.53125-8.535157 0-4.710937 3.820313-8.53125 8.53125-8.53125 4.714844 0 8.535156 3.820313 8.535156 8.53125zm0 0"/><path d="m264.535156 384c0 4.710938-3.824218 8.535156-8.535156 8.535156s-8.535156-3.824218-8.535156-8.535156 3.824218-8.535156 8.535156-8.535156 8.535156 3.824218 8.535156 8.535156zm0 0"/><path d="m68.265625 128c0 4.710938-3.820313 8.535156-8.53125 8.535156-4.714844 0-8.535156-3.824218-8.535156-8.535156s3.820312-8.535156 8.535156-8.535156c4.710937 0 8.53125 3.824218 8.53125 8.535156zm0 0"/><path d="m85.332031 93.867188c0 4.710937-3.820312 8.53125-8.53125 8.53125-4.714843 0-8.535156-3.820313-8.535156-8.53125 0-4.714844 3.820313-8.535157 8.535156-8.535157 4.710938 0 8.53125 3.820313 8.53125 8.535157zm0 0"/><path d="m110.933594 59.734375c0 4.710937-3.820313 8.53125-8.535156 8.53125-4.710938 0-8.53125-3.820313-8.53125-8.53125 0-4.714844 3.820312-8.535156 8.53125-8.535156 4.714843 0 8.535156 3.820312 8.535156 8.535156zm0 0"/><path d="m145.066406 42.667969c0 4.710937-3.820312 8.53125-8.53125 8.53125-4.714844 0-8.535156-3.820313-8.535156-8.53125 0-4.714844 3.820312-8.535157 8.535156-8.535157 4.710938 0 8.53125 3.820313 8.53125 8.535157zm0 0"/><path d="m281.601562 170.667969c0 4.710937-3.820312 8.53125-8.535156 8.53125-4.710937 0-8.53125-3.820313-8.53125-8.53125 0-4.714844 3.820313-8.535157 8.53125-8.535157 4.714844 0 8.535156 3.820313 8.535156 8.535157zm0 0"/><path d="m273.066406 128c0 4.710938-3.820312 8.535156-8.53125 8.535156-4.714844 0-8.535156-3.824218-8.535156-8.535156s3.820312-8.535156 8.535156-8.535156c4.710938 0 8.53125 3.824218 8.53125 8.535156zm0 0"/><path d="m256 93.867188c0 4.710937-3.820312 8.53125-8.535156 8.53125-4.710938 0-8.53125-3.820313-8.53125-8.53125 0-4.714844 3.820312-8.535157 8.53125-8.535157 4.714844 0 8.535156 3.820313 8.535156 8.535157zm0 0"/><path d="m230.398438 59.734375c0 4.710937-3.820313 8.53125-8.53125 8.53125-4.714844 0-8.535157-3.820313-8.535157-8.53125 0-4.714844 3.820313-8.535156 8.535157-8.535156 4.710937 0 8.53125 3.820312 8.53125 8.535156zm0 0"/><path d="m196.265625 42.667969c0 4.710937-3.820313 8.53125-8.53125 8.53125-4.714844 0-8.535156-3.820313-8.535156-8.53125 0-4.714844 3.820312-8.535157 8.535156-8.535157 4.710937 0 8.53125 3.820313 8.53125 8.535157zm0 0"/><path d="m170.667969 68.265625c0 4.714844-3.820313 8.535156-8.535157 8.535156-4.710937 0-8.53125-3.820312-8.53125-8.535156 0-4.710937 3.820313-8.53125 8.53125-8.53125 4.714844 0 8.535157 3.820313 8.535157 8.53125zm0 0"/><path d="m170.667969 110.933594c0 4.710937-3.820313 8.53125-8.535157 8.53125-4.710937 0-8.53125-3.820313-8.53125-8.53125 0-4.714844 3.820313-8.535156 8.53125-8.535156 4.714844 0 8.535157 3.820312 8.535157 8.535156zm0 0"/><path d="m170.667969 153.601562c0 4.710938-3.820313 8.53125-8.535157 8.53125-4.710937 0-8.53125-3.820312-8.53125-8.53125 0-4.714843 3.820313-8.535156 8.53125-8.535156 4.714844 0 8.535157 3.820313 8.535157 8.535156zm0 0"/><path d="m170.667969 196.265625c0 4.714844-3.820313 8.535156-8.535157 8.535156-4.710937 0-8.53125-3.820312-8.53125-8.535156 0-4.710937 3.820313-8.53125 8.53125-8.53125 4.714844 0 8.535157 3.820313 8.535157 8.53125zm0 0"/></svg>