<svg id="Capa_1" enable-background="new 0 0 512 512" height="512" viewBox="0 0 512 512" width="512" xmlns="http://www.w3.org/2000/svg"><g><path d="m95.98 481h261.04c52.368 0 94.98-41.66 94.98-92.871 0-40.723-27.393-76.523-66.401-88.579-12.319-46.201-55.8-78.779-105.59-78.779-18.867 0-36.973 4.644-53.042 13.535-17.227-14.942-39.551-23.306-62.974-23.306-50.713 0-92.271 39.067-94.849 88.037-39.653 11.484-69.144 47.725-69.144 89.092 0 51.211 43.612 92.871 95.98 92.871z"/><path d="m163.993 181c23.687 0 46.685 6.563 66.445 18.75 15.688-5.903 32.534-8.979 49.57-8.979 57.305 0 109.062 34.614 129.555 85.898 11.646 5.354 22.152 12.539 31.454 20.956 40.717-10.47 70.983-46.441 70.983-89.496 0-40.723-27.393-76.523-66.401-88.579-12.319-46.201-54.8-78.779-104.59-78.779-18.867 0-37.973 4.644-54.042 13.535-17.227-14.942-39.551-23.306-62.974-23.306-50.713 0-92.271 39.067-94.849 88.037-39.653 11.484-68.144 47.725-68.144 89.092 0 7.798 1.284 15.255 3.144 22.498 22.837-30.044 58.964-49.627 99.849-49.627z"/></g></svg>