<svg height="480pt" viewBox="-92 0 480 480" width="480pt" xmlns="http://www.w3.org/2000/svg"><path d="m24 0h16v16h-16zm0 0"/><path d="m24 32h16v16h-16zm0 0"/><path d="m8 16h16v16h-16zm0 0"/><path d="m40 16h16v16h-16zm0 0"/><path d="m248 184h16v16h-16zm0 0"/><path d="m248 216h16v16h-16zm0 0"/><path d="m232 200h16v16h-16zm0 0"/><path d="m264 200h16v16h-16zm0 0"/><path d="m16 128h16v16h-16zm0 0"/><path d="m16 160h16v16h-16zm0 0"/><path d="m0 144h16v16h-16zm0 0"/><path d="m32 144h16v16h-16zm0 0"/><path d="m264 48h16v16h-16zm0 0"/><path d="m264 80h16v16h-16zm0 0"/><path d="m248 64h16v16h-16zm0 0"/><path d="m280 64h16v16h-16zm0 0"/><path d="m144 160h16v16h-16zm0 0"/><path d="m128 472c0 4.417969 3.582031 8 8 8h32c4.417969 0 8-3.582031 8-8v-232h8c4.417969 0 8-3.582031 8-8v-28.152344l37-29.601562c1.898438-1.515625 3-3.816406 3-6.246094v-32c0-4.417969-3.582031-8-8-8h-14.566406c4.445312-7.203125 6.722656-15.535156 6.566406-24-.394531-17.15625-3.230469-34.167969-8.414062-50.527344-1.023438-3.066406-3.792969-5.214844-7.015626-5.449218-3.222656-.234376-6.269531 1.496093-7.722656 4.382812-.8125 1.601562-1.71875 3.148438-2.710937 4.640625-6.296875-20.570313-17.433594-39.328125-32.480469-54.703125-3.125-3.121094-8.1875-3.121094-11.3125 0-14.25 14.628906-25.0625 32.246094-31.648438 51.578125-2.089843-1.757813-4.300781-3.363281-6.625-4.800781-1.90625-1.121094-4.195312-1.402344-6.316406-.773438s-3.890625 2.105469-4.882812 4.085938c-6.601563 16.359375-9.625 33.941406-8.871094 51.566406-.15625 8.464844 2.121094 16.796875 6.566406 24h-14.566406c-4.417969 0-8 3.582031-8 8v32c0 2.429688 1.101562 4.730469 3 6.246094l37 29.601562v28.152344c0 4.417969 3.582031 8 8 8h8zm32-72h-16v-16h16zm0-32h-16v-16h16zm0-32h-16v-16h16zm-16 128v-48h16v48zm32-240h-48v-16h48zm-72-120c-.136719-11.65625 1.179688-23.285156 3.910156-34.617188 1.996094 2 3.738282 4.234376 5.1875 6.65625 1.824219 3.117188 5.507813 4.625 8.996094 3.679688 3.484375-.945312 5.90625-4.105469 5.90625-7.71875 0-20.457031 15.398438-41.726562 24-52 8.609375 10.265625 24 31.488281 24 52 0 4.417969 3.582031 8 8 8 4.742188-.253906 9.210938-2.285156 12.519531-5.6875 2.171875 9.75 3.339844 19.699219 3.480469 29.6875.816406 6.582031-1.445312 13.171875-6.136719 17.863281-4.691406 4.691407-11.28125 6.953125-17.863281 6.136719h-1.472656c.949218-2.5625 1.445312-5.269531 1.472656-8 0-17.902344-15.566406-41.777344-17.34375-44.441406-1.570312-2.097656-4.035156-3.332032-6.65625-3.332032s-5.085938 1.234376-6.65625 3.332032c-1.777344 2.664062-17.34375 26.539062-17.34375 44.441406.027344 2.730469.523438 5.4375 1.472656 8h-1.472656c-6.582031.816406-13.171875-1.445312-17.863281-6.136719-4.691407-4.691406-6.953125-11.28125-6.136719-17.863281zm40 16c.964844-8.503906 3.691406-16.710938 8-24.105469 4.308594 7.394531 7.035156 15.601563 8 24.105469 0 4.417969-3.582031 8-8 8s-8-3.582031-8-8zm72 24v16h-40v16h25.191406l-20 16h-58.398437l-20-16h25.207031v-16h-40v-16zm-56 96v64h-16v-64zm0 0"/></svg>