<svg height="512" viewBox="0 0 48 60" width="512" xmlns="http://www.w3.org/2000/svg"><g id="Page-1" fill="none" fill-rule="evenodd"><g id="009---Witch-Doctor" fill-rule="nonzero"><g id="Icons" transform="translate(1 1)"><path id="Shape" d="m33.99 39.11c.0569772.9536176-.1580295 1.9038085-.62 2.74-.0673608.1193575-.144279.2330626-.23.34-.1425421.2188209-.314106.4172968-.51.59-1.583864 1.2812124-3.5350826 2.0238665-5.57 2.12-1.3700971.1333333-2.7499029.1333333-4.12 0-2.0349174-.0961335-3.986136-.8387876-5.57-2.12-.195894-.1727032-.3674579-.3711791-.51-.59-.085721-.1069374-.1626392-.2206425-.23-.34-.4619705-.8361915-.6769772-1.7863824-.62-2.74-.0019586-.0568543.0013892-.1137674.01-.17.02-.6.07-1.18.12-1.73.05-.51.11-1 .18-1.46.08-.58.18-1.13.29-1.66.243832-1.2458371.5882943-2.4698487 1.03-3.66 1.8283534 2.1897651 4.5084204 3.4897432 7.36 3.57 2.8515796-.0802568 5.5316466-1.3802349 7.36-3.57.4417057 1.1901513.786168 2.4141629 1.03 3.66.11.53.21 1.08.29 1.66.07.46.13.95.18 1.46.05.55.1 1.13.12 1.73.0086108.0562326.0119586.1131457.01.17z" fill="#ffe0b2"/><path id="Shape" d="m32.36 30.43c-.6962946.7728332-1.4895282 1.4524596-2.36 2.022 2.062 7.67 1.409 11.915-6.5 12.491 1.1856475.0895903 2.3768624.075202 3.56-.043 3.78-.4 7.121-2.011 6.93-5.79-.0919478-2.9601344-.6417981-5.8881713-1.63-8.68z" fill="#dfc49c"/><path id="Shape" d="m22.54 50.71c-.1578489 1.8889127-.641666 3.7362143-1.43 5.46-.5293631 1.1074347-1.6426146 1.817278-2.87 1.83-.0967744.0016633-.1935701-.0016745-.29-.01-1.5884613-.2061559-2.8013767-1.5201475-2.88-3.12-.1014292-1.5488635-.0880593-3.1031106.04-4.65 1.4147316.2061397 2.8463745-.2428588 3.89-1.22-.0045341 1.082582.3468236 2.1366549 1 3 .9899613-.0553157 1.91135-.5232651 2.54-1.29z" fill="#ffe0b2"/><path id="Shape" d="m34.93 54.87c-.0786233 1.5998525-1.2915387 2.9138441-2.88 3.12-.0964299.0083255-.1932256.0116633-.29.01-1.2273854-.012722-2.3406369-.7225653-2.87-1.83-.788334-1.7237857-1.2721511-3.5710873-1.43-5.46.62865.7667349 1.5500387 1.2346843 2.54 1.29.6531764-.8633451 1.0045341-1.917418 1-3 1.0436255.9771412 2.4752684 1.4261397 3.89 1.22.1280593 1.5468894.1414292 3.1011365.04 4.65z" fill="#ffe0b2"/><path id="Shape" d="m34.89 50.22c-1.4147316.2061397-2.8463745-.2428588-3.89-1.22-.0124995.4154712-.0633826.8288972-.152 1.235.3471299.0245716.6957213.0195535 1.042-.015.1280593 1.5468894.1414292 3.1011365.04 4.65-.0728018 1.1332979-.7038876 2.1563765-1.684 2.73.4621195.2607015.9834181.398429 1.514.4.0967744.0016633.1935701-.0016745.29-.01 1.5884613-.2061559 2.8013767-1.5201475 2.88-3.12.1014292-1.5488635.0880593-3.1031106-.04-4.65z" fill="#dfc49c"/><path id="Shape" d="m37 17c0 5.46-1.82 10.32-4.64 13.43-1.8283534 2.1897651-4.5084204 3.4897432-7.36 3.57-2.8515796-.0802568-5.5316466-1.3802349-7.36-3.57-2.82-3.11-4.64-7.97-4.64-13.43 0-9.39 5.37-17 12-17s12 7.61 12 17z" fill="#ff9801"/><path id="Shape" d="m25 0c-.5033385.00500761-1.0052655.05419645-1.5.147 5.92 1.047 10.5 8.184 10.5 16.853 0 5.46-1.82 10.32-4.64 13.43-1.5154799 1.7645225-3.5787333 2.9700822-5.86 3.424.4947641.092468.9966909.1413222 1.5.146 2.8515796-.0802568 5.5316466-1.3802349 7.36-3.57 2.82-3.11 4.64-7.97 4.64-13.43 0-9.39-5.37-17-12-17z" fill="#f57c00"/><circle id="Oval" cx="19" cy="13" fill="#3f51b5" r="2"/><circle id="Oval" cx="31" cy="13" fill="#3f51b5" r="2"/><path id="Shape" d="m16.61 34.09c-.11.53-.21 1.08-.29 1.66-.07.46-.13.95-.18 1.46-.05.55-.1 1.13-.12 1.73l-6.98.47-.9.06c-.95186467.064913-1.81763207-.5499074-2.07-1.47-.038654-.1267792-.06215111-.2576917-.07-.39-.06498542-1.0166797.6387295-1.922069 1.64-2.11l7.94-1.46c.3421526-.0692002.6961588-.0520154 1.03.05z" fill="#ffe0b2"/><path id="Shape" d="m44 37.61c-.0358576.5309216-.2818161 1.0256647-.683446 1.3747449s-.9258144.5237138-1.456554.4852551l-7.88-.53c-.02-.6-.07-1.18-.12-1.73-.05-.51-.11-1-.18-1.46-.08-.58-.18-1.13-.29-1.66.3338412-.1020154.6878474-.1192002 1.03-.05l7.94 1.46c1.0012705.187931 1.7049854 1.0933203 1.64 2.11z" fill="#ffe0b2"/><path id="Shape" d="m42.36 35.5-7.94-1.46c-.3421526-.0692002-.6961588-.0520154-1.03.05.021.1.036.218.056.323l5.914 1.087c.8784175.1594648 1.544765.8818145 1.6329788 1.7702202.0882138.8884056-.4230723 1.7276879-1.2529788 2.0567798l2.12.143c1.0962852.1380712 2.0969288-.6387148 2.235-1.735s-.6387148-2.0969288-1.735-2.235z" fill="#dfc49c"/><path id="Shape" d="m36 50c-.3619447.1093382-.7337136.1830221-1.11.22-1.4147316.2061397-2.8463745-.2428588-3.89-1.22.0045341 1.082582-.3468236 2.1366549-1 3-.9899613-.0553157-1.91135-.5232651-2.54-1.29-.1794244-.2187035-.3337243-.4568621-.46-.71-.538209 1.0799219-1.2101525 2.0878371-2 3-.7898475-.9121629-1.461791-1.9200781-2-3-.1262757.2531379-.2805756.4912965-.46.71-.62865.7667349-1.5500387 1.2346843-2.54 1.29-.6531764-.8633451-1.0045341-1.917418-1-3-1.0436255.9771412-2.4752684 1.4261397-3.89 1.22-.3762864-.0369779-.7480553-.1106618-1.11-.22 0-3.49 2.28-6.98 2.86-7.81.1425421.2188209.314106.4172968.51.59 1.583864 1.2812124 3.5350826 2.0238665 5.57 2.12 1.3700971.1333333 2.7499029.1333333 4.12 0 2.0349174-.0961335 3.986136-.8387876 5.57-2.12.195894-.1727032.3674579-.3711791.51-.59.58.83 2.86 4.32 2.86 7.81z" fill="#60a917"/><path id="Shape" d="m33.14 42.19c-.1425421.2188209-.314106.4172968-.51.59-.4535656.4015135-.9578733.7417531-1.5 1.012 1.1159326 1.8877745 1.7575901 4.0179401 1.87 6.208 0 0-.078.023-.188.053.6759837.1859489 1.3809961.2426078 2.078.167.3762864-.0369779.7480553-.1106618 1.11-.22 0-3.49-2.28-6.98-2.86-7.81z" fill="#549414"/><path id="Shape" d="m46 7.97c0 2.23-1.343 4.03-3 4.03s-3-1.8-3-4.03c0-1.686 1.721-5.773 2.556-7.657.0674966-.18712763.2450715-.31185007.444-.31185007s.3765034.12472244.444.31185007c.835 1.887 2.556 5.971 2.556 7.657z" fill="#ffeb3a"/><path id="Shape" d="m43.444.313c-.0674966-.18712763-.2450715-.31185007-.444-.31185007s-.3765034.12472244-.444.31185007c-.284.64-.67 1.541-1.056 2.51.7442226 1.63486225 1.2493963 3.36828146 1.5 5.147.0479873 1.32380835-.5029971 2.5987864-1.5 3.471.4225936.3502627.9512453.5472735 1.5.559 1.657 0 3-1.8 3-4.03 0-1.686-1.721-5.77-2.556-7.657z" fill="#fdd834"/><g fill="#f5f5f5"><path id="Shape" d="m10 42v4c-.0032948 1.1032019-.89679813 1.9967052-2 2h-6c-1.10320187-.0032948-1.9967052-.8967981-2-2v-4c0-2.209139 1.790861-4 4-4h2.07c.25236793.9200926 1.11813533 1.534913 2.07 1.47l.9-.06c.62071947.7199917.9614966 1.63938.96 2.59z"/><path id="Shape" d="m2 48h6v3c0 .5522847-.44771525 1-1 1h-4c-.55228475 0-1-.4477153-1-1z"/></g></g><g id="Layer_2" fill="#000"><path id="Shape" d="m26 15c.5522847 0 1-.4477153 1-1v-2c0-.5522847-.4477153-1-1-1s-1 .4477153-1 1v2c0 .5522847.4477153 1 1 1z"/><path id="Shape" d="m22.334 20.6c.5140664-.1889931.780449-.7563535.5975023-1.2726027-.1829466-.5162491-.7471415-.7892723-1.2655023-.6123973-1.3790221.4799844-2.8982976.3395809-4.166-.385-.4748504-.2484017-1.0611063-.0783237-1.3292932.3856398-.268187.4639634-.1229594 1.0568642.3292932 1.3443602 1.7727151 1.0249258 3.9053211 1.2222539 5.836.54z"/><path id="Shape" d="m20 17c1.6568542 0 3-1.3431458 3-3s-1.3431458-3-3-3-3 1.3431458-3 3 1.3431458 3 3 3zm0-4c.5522847 0 1 .4477153 1 1s-.4477153 1-1 1-1-.4477153-1-1 .4477153-1 1-1z"/><path id="Shape" d="m34.5 18.33c-1.2671645.7239832-2.7855741.8643741-4.164.385-.5183608-.176875-1.0825557.0961482-1.2655023.6123973-.1829467.5162492.0834359 1.0836096.5975023 1.2726027 1.9306789.6822539 4.0632849.4849258 5.836-.54.3254784-.1702629.5314125-.5052613.5363839-.8725499s-.1918202-.7077381-.5125711-.886748c-.3207508-.1790098-.7138237-.1677615-1.0238128.0292979z"/><path id="Shape" d="m32 17c1.6568542 0 3-1.3431458 3-3s-1.3431458-3-3-3-3 1.3431458-3 3 1.3431458 3 3 3zm0-4c.5522847 0 1 .4477153 1 1s-.4477153 1-1 1-1-.4477153-1-1 .4477153-1 1-1z"/><path id="Shape" d="m23.975 41c.0979976.0081329.1948656.026568.289.055-.4038831.4326258-.7717718.8975033-1.1 1.39-.306518.4595009-.1825009 1.0804819.277 1.387.4595009.306518 1.080482.1825009 1.387-.277.3376885-.5146757.7306952-.9908443 1.172-1.42.4399067.4293648.8315656.9055256 1.168 1.42.1982824.297245.5400812.4661283.8966441.4430332s.6737195-.2346599.832-.555.1336383-.7007882-.0646441-.9980332c-.3278948-.4924262-.6958061-.9569979-1.1-1.389.0947333-.0275681.1918135-.0463146.29-.056.5522847-.0060751.9950751-.4587153.989-1.011s-.4587153-.9950751-1.011-.989c-.7097381.0432811-1.3973296.2636542-2 .641-.6026704-.3773458-1.2902619-.5977189-2-.641-.5392892.001046-.9778979.4347565-.985.974-.0082514.544619.4160348.9980749.96 1.026z"/><path id="Shape" d="m2 49.816v2.184c0 1.1045695.8954305 2 2 2h4c1.1045695 0 2-.8954305 2-2v-2.184c1.1943509-.4222546 1.9947486-1.5492146 2-2.816v-4c-.0001714-.579819-.1016995-1.1551449-.3-1.7l4.34-.292c.0732701.7534047.2898195 1.485871.638 2.158-1.5786572 2.3241209-2.5035912 5.0298463-2.678 7.834-.0001037.4306074.2754572.8129281.684.949.025.008.169.052.377.1-.0816441 1.2988531-.0776354 2.6016739.012 3.9.1206731 2.0815431 1.7108781 3.7798652 3.78 4.037.1286488.0117104.2578413.016384.387.014 1.6051591-.009638 3.0644475-.9333365 3.76-2.38.6258901-1.3195684 1.0602688-2.7217022 1.29-4.164.2951345.4461511.6298174.8648394 1 1.251.3904999.3903819 1.0235001.3903819 1.414 0 .3701826-.3861606.7048655-.8048489 1-1.251.2295706 1.4400373.6629154 2.8400742 1.287 4.158.6952595 1.4519088 2.1592263 2.3786864 3.769 2.386.1311729.0019369.2623564-.0030701.393-.015 2.0659008-.2592026 3.6528048-1.9554322 3.774-4.034.0894995-1.298331.0935082-2.6011429.012-3.9.208-.05.352-.093.377-.1.4092423-.1363037.6849662-.5196567.684-.951-.173388-2.8042021-1.0972814-5.5102599-2.675-7.835.3478596-.6719718.5647142-1.4039834.639-2.157l6.825.46c.071 0 .141.007.211.007v13.525c0 .5522847.4477153 1 1 1s1-.4477153 1-1v-14.3c.6389478-.566522 1.0046711-1.379567 1.0046711-2.2335s-.3657233-1.666978-1.0046711-2.2335v-22.412c1.9245271-.8206977 3.1254261-2.7625514 3-4.851 0-1.737-1.437-5.343-2.642-8.06-.2264511-.55015559-.7625619-.90923551-1.3575-.90923551s-1.1310489.35907992-1.3575.90923551c-1.206 2.717-2.643 6.323-2.643 8.06-.1254261 2.0884486 1.0754729 4.0303023 3 4.851v21.6l-7.384-1.361c-.1463091-.0222015-.2940201-.0338981-.442-.035-.1917007-.8145167-.4253453-1.6185879-.7-2.409 3.0331154-3.8812469 4.6319931-8.6913039 4.526-13.616 0-9.925-5.832-18-13-18s-13 8.075-13 18c-.1071316 4.9242117 1.4903161 9.7342181 4.522 13.616-.2743824.7901603-.5080232 1.5938845-.7 2.408-.1429361.0008541-.28563.011882-.427.033l-7.938 1.459c-1.24722763.2360979-2.21171896 1.2302043-2.41 2.484h-1.047c-2.76005315.0033061-4.99669388 2.2399468-5 5v4c.00525139 1.2667854.80564914 2.3937454 2 2.816zm2 2.184v-2h4v2zm22-16c2.5612823-.0478824 5.0161535-1.0330329 6.9-2.769.3546286 1.2017255.6196882 2.4280856.793 3.669.07.445.13.91.175 1.412.061.586.105 1.2.131 1.846.0425151.7682272-.1306748 1.5330337-.5 2.208-.0526481.0898109-.1107573.1763067-.174.259-.015.022-.03.042-.043.065-.0949317.1247279-.2006744.2408441-.316.347-1.4378286 1.1227187-3.1862399 1.7759291-5.008 1.871-1.3000972.1230007-2.6089028.1230007-3.909 0-1.8223022-.0945701-3.5714031-.7474281-5.01-1.87-.116479-.1066977-.222925-.2238552-.318-.35-.012-.021-.026-.04-.04-.06-.0662653-.0874883-.1270484-.1789968-.182-.274-.3655919-.6732377-.5359867-1.4351656-.492-2.2.026-.639.07-1.256.133-1.858.043-.486.1-.951.174-1.41.1733135-1.2362315.438039-2.457913.792-3.655 1.8823091 1.7346074 4.3347978 2.7196584 6.894 2.769zm-6.76 22c-.065 0-.126 0-.186 0-1.1072853-.1613714-1.9423627-1.0889084-1.987-2.207-.081786-1.1824401-.0864626-2.368952-.014-3.552.7544859-.0210654 1.4973762-.1909854 2.186-.5.174515.7378562.5377088 1.4177247 1.054 1.973.1886329.184985.4428058.2878046.707.286.4037544-.0182164.8031211-.0915626 1.187-.218-.2006359 1.0178509-.5271442 2.0067815-.972 2.944-.36093.767062-1.1273579 1.2614565-1.975 1.274zm15.693-2.208c-.0428766 1.1168482-.8753252 2.0446859-1.981 2.208-.0435382.0041242-.0872741.0057935-.131.005-.8670025-.0068591-1.6559914-.5021538-2.039-1.28-.4433437-.9354576-.7688331-1.9223388-.969-2.938.3841169.1247386.783478.1964016 1.187.213.2651948-.0000566.5195073-.1054506.707-.293.5162912-.5552753.879485-1.2351438 1.054-1.973.6891085.3086184 1.4322455.4785171 2.187.5.071835 1.1850796.0668245 2.3735682-.015 3.558zm-2.226-6.5c-.2861229-.2860368-.7164079-.3714873-1.0901167-.2164868-.3737088.1550004-.6172016.5199089-.6168833.9244868-.0114048.6682673-.1626519 1.3267372-.444 1.933-.728915-.1924743-1.3352373-.6977429-1.656-1.38-.187968-.3152706-.5279475-.5083906-.895-.5083906s-.707032.19312-.895.5083906c-.3296386.6438549-.7004061 1.2658091-1.11 1.862-.4059079-.5969782-.7733207-1.2192417-1.1-1.863-.1691635-.3394145-.5157659-.5539339-.895-.5539339s-.7258365.2145194-.895.5539339c-.3258751.6798243-.9339135 1.1821964-1.663 1.374-.2810429-.6040233-.4332719-1.2599363-.447-1.926-.0000863-.4043959-.2437275-.7689341-.6173454-.923678-.373618-.1547439-.8036603-.0692299-1.0896546.216678-.8846904.7888204-2.0846886 1.1237123-3.25.907.2849502-1.9200495.9605261-3.7612915 1.985-5.41 1.695943 1.2434835 3.7123286 1.9756421 5.811 2.11 1.4383959.1373364 2.8866041.1373364 4.325 0 2.0973498-.1339321 4.1126216-.8650233 5.808-2.107 1.0244739 1.6487085 1.7000498 3.4899505 1.985 5.41-1.1657257.2146662-2.3652451-.1211992-3.25-.91zm9.293-40.322c.3735638-2.14039476 1.0468485-4.21747807 2-6.17.9532876 1.95246697 1.6265786 4.02956991 2 6.17 0 1.642-.916 3.03-2 3.03s-2-1.388-2-3.03zm1.182 28.514c.4970695.0979581.8460105.547145.818 1.053-.0147395.2680743-.1372936.518786-.339776.6950869-.2024823.1763009-.4676711.2631961-.735224.2409131l-7-.471c-.023-.3-.047-.6-.078-.882-.046-.532-.113-1.041-.186-1.513-.025-.177-.06-.346-.088-.521zm-18.182-35.41v4.926c0 .55228475.4477153 1 1 1s1-.44771525 1-1v-4.926c5.6.738 10 7.6 10 15.926s-4.4 15.188-10 15.926v-15.926c0-.5522847-.4477153-1-1-1s-1 .4477153-1 1v15.926c-5.6-.738-10-7.6-10-15.926s4.4-15.188 10-15.926zm-16.18 35.409 7.6-1.4c-.027.17-.062.335-.086.507-.075.486-.142.995-.187 1.511-.03.286-.042.6-.064.9l-7.015.472c-.54872622.0390189-1.0259267-.3724995-1.068-.921-.03392071-.5116997.31698877-.9691658.82-1.069zm-6.82 5.517c0-1.6568542 1.34314575-3 3-3h1.43c.53541361.9079047 1.50800844 1.4682286 2.562 1.476.07 0 .143 0 .215-.008l.348-.024c.29172422.4664913.445962 1.0058035.445 1.556v4c0 .5522847-.44771525 1-1 1h-6c-.55228475 0-1-.4477153-1-1z"/><circle id="Oval" cx="4" cy="44" r="1"/><circle id="Oval" cx="8" cy="44" r="1"/></g></g></g></svg>