<svg id="Layer_1" enable-background="new 0 0 512 512" height="512" viewBox="0 0 512 512" width="512" xmlns="http://www.w3.org/2000/svg"><path d="m256 83.789 57.006-57.006c-13.758-16.247-34.048-26.783-57.006-26.783s-43.248 10.536-57.006 26.783z"/><path d="m181 75v195h60v-60h30v60h60v-195c0-7.185-1.331-13.993-3.217-20.572l-71.783 71.783-71.783-71.783c-1.886 6.579-3.217 13.387-3.217 20.572z"/><path d="m151 362h30v30h150v-30h30v-62h-210z"/><path d="m466 105c0 41.353-33.647 75-75 75v-30c24.814 0 45-20.186 45-45v-15h-75v150h15c74.559 0 136-60.441 136-135v-15h-46z"/><path d="m136 240h15v-150h-75v15c0 24.814 20.186 45 45 45v30c-41.353 0-75-33.647-75-75v-15h-46v15c0 74.559 61.441 135 136 135z"/><path d="m151 512h68.789l-68.789-68.789z"/><path d="m339.789 422h-167.578l83.789 83.789z"/><path d="m361 443.211-68.789 68.789h68.789z"/></svg>