<svg id="Capa_1" enable-background="new 0 0 497 497" height="512" viewBox="0 0 497 497" width="512" xmlns="http://www.w3.org/2000/svg"><g><path d="m422 0c12.05 0 21.46 10.4 20.26 22.39l-5.26 52.61-15 15-15-15-5.26-52.61c-1.2-11.99 8.21-22.39 20.26-22.39z" fill="#fda13f"/><path d="m75 0c12.05 0 21.46 10.4 20.26 22.39l-5.26 52.61-15 15-15-15-5.26-52.61c-1.2-11.99 8.21-22.39 20.26-22.39z" fill="#fda13f"/><path d="m95.26 474.61c1.2 11.99-8.21 22.39-20.26 22.39s-21.46-10.4-20.26-22.39l5.26-52.61 15-15 15 15z" fill="#fda13f"/><path d="m442.26 474.61c1.2 11.99-8.21 22.39-20.26 22.39s-21.46-10.4-20.26-22.39l5.26-52.61 15-15 15 15z" fill="#fda13f"/><path d="m392 105v287h-71.893c-1.989 0-3.897-.79-5.303-2.197l-7.5-7.5c-2.929-2.929-7.678-2.929-10.607 0l-7.5 7.5c-1.407 1.407-3.314 2.197-5.303 2.197h-70.787c-1.989 0-3.897-.79-5.303-2.197l-7.5-7.5c-2.929-2.929-7.678-2.929-10.607 0l-7.5 7.5c-1.407 1.407-3.314 2.197-5.303 2.197h-71.894v-287h71.893c1.989 0 3.897.79 5.303 2.197l7.5 7.5c2.929 2.929 7.678 2.929 10.607 0l7.5-7.5c1.407-1.407 3.314-2.197 5.303-2.197h70.787c1.989 0 3.897.79 5.303 2.197l7.5 7.5c2.929 2.929 7.678 2.929 10.607 0l7.5-7.5c1.407-1.407 3.314-2.197 5.303-2.197z" fill="#fff7ba"/><path d="m422 90h60v317h-60z" fill="#fcd72b"/><path d="m75 90h60v317h-60z" fill="#fcd72b"/><path d="m15 90h90v317h-90z" fill="#fff04a"/><path d="m362 90h90v317h-90z" fill="#fff04a"/><path d="m482 392h-30v30h30c8.28 0 15-6.72 15-15s-6.72-15-15-15z" fill="#ff5a47"/><path d="m482 75h-30v30h30c8.28 0 15-6.72 15-15s-6.72-15-15-15z" fill="#ff5a47"/><path d="m135 392h-30v30h30c8.28 0 15-6.72 15-15s-6.72-15-15-15z" fill="#ff5a47"/><path d="m135 75h-30v30h30c8.28 0 15-6.72 15-15s-6.72-15-15-15z" fill="#ff5a47"/><path d="m105 392h-90c-8.28 0-15 6.72-15 15s6.72 15 15 15h90c8.28 0 15-6.72 15-15s-6.72-15-15-15z" fill="#fe8047"/><path d="m105 75h-90c-8.28 0-15 6.72-15 15s6.72 15 15 15h90c8.28 0 15-6.72 15-15s-6.72-15-15-15z" fill="#fe8047"/><path d="m452 75h-90c-8.28 0-15 6.72-15 15s6.72 15 15 15h90c8.28 0 15-6.72 15-15s-6.72-15-15-15z" fill="#fe8047"/><path d="m452 392h-90c-8.28 0-15 6.72-15 15s6.72 15 15 15h90c8.28 0 15-6.72 15-15s-6.72-15-15-15z" fill="#fe8047"/><g fill="#fcd72b"><path d="m233.5 181h-68.5c-4.143 0-7.5-3.358-7.5-7.5s3.357-7.5 7.5-7.5h68.5c4.143 0 7.5 3.358 7.5 7.5s-3.357 7.5-7.5 7.5z"/><path d="m233.5 211h-68.5c-4.143 0-7.5-3.358-7.5-7.5s3.357-7.5 7.5-7.5h68.5c4.143 0 7.5 3.358 7.5 7.5s-3.357 7.5-7.5 7.5z"/><path d="m233.5 241h-68.5c-4.143 0-7.5-3.358-7.5-7.5s3.357-7.5 7.5-7.5h68.5c4.143 0 7.5 3.358 7.5 7.5s-3.357 7.5-7.5 7.5z"/><path d="m332 181h-68.5c-4.143 0-7.5-3.358-7.5-7.5s3.357-7.5 7.5-7.5h68.5c4.143 0 7.5 3.358 7.5 7.5s-3.357 7.5-7.5 7.5z"/><path d="m332 211h-68.5c-4.143 0-7.5-3.358-7.5-7.5s3.357-7.5 7.5-7.5h68.5c4.143 0 7.5 3.358 7.5 7.5s-3.357 7.5-7.5 7.5z"/><path d="m332 241h-68.5c-4.143 0-7.5-3.358-7.5-7.5s3.357-7.5 7.5-7.5h68.5c4.143 0 7.5 3.358 7.5 7.5s-3.357 7.5-7.5 7.5z"/><path d="m233.5 271h-68.5c-4.143 0-7.5-3.358-7.5-7.5s3.357-7.5 7.5-7.5h68.5c4.143 0 7.5 3.358 7.5 7.5s-3.357 7.5-7.5 7.5z"/><path d="m233.5 301h-68.5c-4.143 0-7.5-3.358-7.5-7.5s3.357-7.5 7.5-7.5h68.5c4.143 0 7.5 3.358 7.5 7.5s-3.357 7.5-7.5 7.5z"/><path d="m233.5 331h-68.5c-4.143 0-7.5-3.358-7.5-7.5s3.357-7.5 7.5-7.5h68.5c4.143 0 7.5 3.358 7.5 7.5s-3.357 7.5-7.5 7.5z"/><path d="m332 271h-68.5c-4.143 0-7.5-3.358-7.5-7.5s3.357-7.5 7.5-7.5h68.5c4.143 0 7.5 3.358 7.5 7.5s-3.357 7.5-7.5 7.5z"/><path d="m332 301h-68.5c-4.143 0-7.5-3.358-7.5-7.5s3.357-7.5 7.5-7.5h68.5c4.143 0 7.5 3.358 7.5 7.5s-3.357 7.5-7.5 7.5z"/><path d="m332 331h-68.5c-4.143 0-7.5-3.358-7.5-7.5s3.357-7.5 7.5-7.5h68.5c4.143 0 7.5 3.358 7.5 7.5s-3.357 7.5-7.5 7.5z"/></g></g></svg>