<svg height="512" viewBox="0 0 60 60" width="512" xmlns="http://www.w3.org/2000/svg"><g id="Page-1" fill="none" fill-rule="evenodd"><g id="022---Scroll" fill="rgb(0,0,0)" fill-rule="nonzero"><path id="Shape" d="m7 20c-.55228475 0-1 .4477153-1 1v1c0 .5522847.44771525 1 1 1s1-.4477153 1-1v-1c0-.5522847-.44771525-1-1-1z"/><path id="Shape" d="m60 10c0-1.65685425-1.3431458-3-3-3h-.847l.413-2.891c.1476054-1.03347877-.1606899-2.0801374-.8449485-2.86858901-.6842585-.78845161-1.6770853-1.24103888-2.7210515-1.24041099-1.0436171-.00004787-2.0358958.45278897-2.7197066 1.24116676-.6838108.78837778-.9918493 1.83470016-.8442934 2.86783324l.411 2.891h-.847c-1.4594373-.0027654-2.7080809 1.04748812-2.9553873 2.48582199-.2473064 1.43833391.5788398 2.84532571 1.9553873 3.33017801v1.184h-36v-1.184c1.3765475-.4848523 2.2026937-1.8918441 1.9553873-3.33017801-.2473064-1.43833387-1.49595-2.48858739-2.9553873-2.48582199h-.847l.413-2.891c.1476054-1.03347877-.1606899-2.0801374-.84494847-2.86858901s-1.67708537-1.24103888-2.72105153-1.24041099c-1.04396616-.00062789-2.03679296.45195938-2.72105153 1.24041099s-.9925539 1.83511024-.84494847 2.86858901l.413 2.891h-.847c-1.45943726-.0027654-2.70808095 1.04748812-2.95538732 2.48582199-.24730638 1.43833391.57883984 2.84532571 1.95538732 3.33017801v34.368c-1.37654748.4848523-2.2026937 1.8918441-1.95538732 3.330178.24730637 1.4383339 1.49595006 2.4885874 2.95538732 2.485822h.847l-.413 2.891c-.14760543 1.0334788.1606899 2.0801374.84494847 2.868589s1.67708537 1.2410389 2.72105153 1.240411c1.04361712.0000479 2.03589583-.452789 2.71970659-1.2411668.68381081-.7883777.99184931-1.8347001.84429341-2.8678332l-.411-2.891h.847c1.4594373.0027654 2.7080809-1.0474881 2.9553873-2.485822s-.5788398-2.8453257-1.9553873-3.330178v-1.184h36v1.184c-1.3765475.4848523-2.2026937 1.8918441-1.9553873 3.330178s1.49595 2.4885874 2.9553873 2.485822h.847l-.413 2.891c-.1476054 1.0334788.1606899 2.0801374.8449485 2.868589.6842585.7884516 1.6770853 1.2410389 2.7210515 1.240411 1.0436171.0000479 2.0358958-.452789 2.7197066-1.2411668.6838108-.7883777.9918493-1.8347001.8442934-2.8678332l-.411-2.891h.847c1.4594373.0027654 2.7080809-1.0474881 2.9553873-2.485822s-.5788398-2.8453257-1.9553873-3.330178v-34.368c1.1943509-.4222546 1.9947486-1.5492146 2-2.816zm-8.586-6.173c-.0658781-.4596388.0711714-.92522552.375564-1.27587193.3043926-.35064642.7461006-.55176214 1.210436-.55112807.4637851-.00001208.9047559.20121883 1.2086636.55155687s.440846.81530795.3753364 1.27444313l-.451 3.174h-2.266zm-2.414 5.173h8c.5522847 0 1 .44771525 1 1 0 .5522847-.4477153 1-1 1h-8c-.5522847 0-1-.4477153-1-1 0-.55228475.4477153-1 1-1zm7 38h-6v-34h2v4c0 .5522847.4477153 1 1 1s1-.4477153 1-1v-4h2zm-52-34h2v4c0 .5522847.44771525 1 1 1s1-.4477153 1-1v-4h2v34h-6zm1.414-9.173c-.06587808-.4596388.07117142-.92522552.37556398-1.27587193.30439257-.35064642.74610064-.55176214 1.21043602-.55112807.4641341-.00059231.90565308.20038891 1.21000865.55080081s.44155072.8157182.37599135 1.27519919l-.453 3.174h-2.266zm-2.414 5.173h8c.5522847 0 1 .44771525 1 1 0 .5522847-.4477153 1-1 1h-8c-.55228475 0-1-.4477153-1-1 0-.55228475.44771525-1 1-1zm5.586 47.173c.06587808.4596388-.07117142.9252255-.37556398 1.2758719-.30439257.3506465-.74610064.5517622-1.21043602.5511281-.46378511.0000121-.90475591-.2012188-1.20866361-.5515569-.3039077-.350338-.44084604-.8153079-.37533639-1.2744431l.451-3.174h2.266zm2.414-5.173h-8c-.55228475 0-1-.4477153-1-1s.44771525-1 1-1h8c.5522847 0 1 .4477153 1 1s-.4477153 1-1 1zm34-7v-5c0-.5522847-.4477153-1-1-1s-1 .4477153-1 1v5h-2v-3c0-.5522847-.4477153-1-1-1s-1 .4477153-1 1v3h-27v-28h3v5c0 .5522847.4477153 1 1 1s1-.4477153 1-1v-5h2v3c0 .5522847.4477153 1 1 1s1-.4477153 1-1v-3h27v28zm9.586 12.173c.0658781.4596388-.0711714.9252255-.375564 1.2758719-.3043926.3506465-.7461006.5517622-1.210436.5511281-.4637851.0000121-.9047559-.2012188-1.2086636-.5515569-.3039077-.350338-.440846-.8153079-.3753364-1.2744431l.451-3.174h2.266zm2.414-5.173h-8c-.5522847 0-1-.4477153-1-1s.4477153-1 1-1h8c.5522847 0 1 .4477153 1 1s-.4477153 1-1 1z"/><path id="Shape" d="m53 20c-.5522847 0-1 .4477153-1 1v1c0 .5522847.4477153 1 1 1s1-.4477153 1-1v-1c0-.5522847-.4477153-1-1-1z"/><path id="Shape" d="m16 24c-.5522847 0-1 .4477153-1 1v1c0 .5522847.4477153 1 1 1s1-.4477153 1-1v-1c0-.5522847-.4477153-1-1-1z"/><path id="Shape" d="m44 33c-.5522847 0-1 .4477153-1 1v1c0 .5522847.4477153 1 1 1s1-.4477153 1-1v-1c0-.5522847-.4477153-1-1-1z"/></g></g></svg>